STARTFONT 2.3
FONT -FontForge-Zen Loop-Book-R-Normal--16-160-72-72-P-51-ISO10646-1
SIZE 16 72 72  4
FONTBOUNDINGBOX 14 20 -2 -5
COMMENT "Generated by fontforge, http://fontforge.sourceforge.net"
COMMENT "Copyright 2021 The Zen-Loop Project Authors (https://github.com/googlefonts/zen-loop)"
STARTPROPERTIES 40
FOUNDRY "FontForge"
FAMILY_NAME "Zen Loop"
WEIGHT_NAME "Book"
SLANT "R"
SETWIDTH_NAME "Normal"
ADD_STYLE_NAME ""
PIXEL_SIZE 16
POINT_SIZE 160
RESOLUTION_X 72
RESOLUTION_Y 72
SPACING "P"
AVERAGE_WIDTH 51
CHARSET_REGISTRY "ISO10646"
CHARSET_ENCODING "1"
FONTNAME_REGISTRY ""
CHARSET_COLLECTIONS "ISO10646-1"
BITS_PER_PIXEL 4
FONT_NAME "ZenLoop-Regular"
FACE_NAME "Zen Loop Regular"
COPYRIGHT "Copyright 2021 The Zen-Loop Project Authors (https://github.com/googlefonts/zen-loop)"
FONT_VERSION "1.000; ttfautohint (v1.8.3)"
FONT_ASCENT 13
FONT_DESCENT 3
UNDERLINE_POSITION -2
UNDERLINE_THICKNESS 1
X_HEIGHT 7
CAP_HEIGHT 11
RAW_ASCENT 800
RAW_DESCENT 200
NORM_SPACE 4
RELATIVE_WEIGHT 40
RELATIVE_SETWIDTH 50
SUPERSCRIPT_X 0
SUPERSCRIPT_Y 5
SUPERSCRIPT_SIZE 9
SUBSCRIPT_X 0
SUBSCRIPT_Y 1
SUBSCRIPT_SIZE 9
AVG_LOWERCASE_WIDTH 46
AVG_UPPERCASE_WIDTH 61
ENDPROPERTIES
CHARS 248
STARTCHAR CR
ENCODING 13
SWIDTH 600 0
DWIDTH 10 0
BBX 1 1 0 0
BITMAP
00
ENDCHAR
STARTCHAR space
ENCODING 32
SWIDTH 240 0
DWIDTH 4 0
BBX 1 1 0 0
BITMAP
00
ENDCHAR
STARTCHAR exclam
ENCODING 33
SWIDTH 141 0
DWIDTH 2 0
BBX 2 12 0 0
BITMAP
14
14
14
14
14
14
14
14
04
00
03
14
ENDCHAR
STARTCHAR quotedbl
ENCODING 34
SWIDTH 195 0
DWIDTH 3 0
BBX 3 3 0 9
BITMAP
3240
3250
3250
ENDCHAR
STARTCHAR numbersign
ENCODING 35
SWIDTH 454 0
DWIDTH 7 0
BBX 7 12 0 0
BITMAP
00040400
00230500
00400500
00500500
05955940
00501400
00503200
01405000
38658510
05005000
05005000
05014000
ENDCHAR
STARTCHAR dollar
ENCODING 36
SWIDTH 356 0
DWIDTH 6 0
BBX 6 15 0 -2
BITMAP
002000
059630
245050
415000
335000
065000
01A000
005700
005060
005042
305033
415050
069640
005000
004000
ENDCHAR
STARTCHAR percent
ENCODING 37
SWIDTH 470 0
DWIDTH 8 0
BBX 7 12 0 0
BITMAP
06720000
33060410
50050500
41053300
14145000
04514000
00053510
00056050
00443050
00523050
02415050
05005530
ENDCHAR
STARTCHAR ampersand
ENCODING 38
SWIDTH 520 0
DWIDTH 8 0
BBX 8 12 0 0
BITMAP
00077000
00412300
00502300
00505000
00345000
00290000
01660152
06051501
33005500
50006300
32006600
05551064
ENDCHAR
STARTCHAR quotesingle
ENCODING 39
SWIDTH 121 0
DWIDTH 2 0
BBX 2 3 0 9
BITMAP
32
32
32
ENDCHAR
STARTCHAR parenleft
ENCODING 40
SWIDTH 233 0
DWIDTH 4 0
BBX 3 13 1 -1
BITMAP
0410
0600
3300
5000
5000
5000
5000
5000
5000
5000
3300
0600
0410
ENDCHAR
STARTCHAR parenright
ENCODING 41
SWIDTH 233 0
DWIDTH 4 0
BBX 3 13 0 -1
BITMAP
4100
0500
0500
0230
0050
0050
0050
0050
0050
0230
0500
0500
4100
ENDCHAR
STARTCHAR asterisk
ENCODING 42
SWIDTH 313 0
DWIDTH 5 0
BBX 5 4 0 8
BITMAP
004000
246420
02B200
051500
ENDCHAR
STARTCHAR plus
ENCODING 43
SWIDTH 577 0
DWIDTH 9 0
BBX 9 8 0 0
BITMAP
0000400000
0000500000
0000500000
0000500000
1555955520
0000500000
0000500000
0000500000
ENDCHAR
STARTCHAR comma
ENCODING 44
SWIDTH 145 0
DWIDTH 2 0
BBX 2 3 0 -2
BITMAP
05
05
42
ENDCHAR
STARTCHAR hyphen
ENCODING 45
SWIDTH 286 0
DWIDTH 5 0
BBX 4 1 0 4
BITMAP
1554
ENDCHAR
STARTCHAR period
ENCODING 46
SWIDTH 181 0
DWIDTH 3 0
BBX 1 2 1 0
BITMAP
30
40
ENDCHAR
STARTCHAR slash
ENCODING 47
SWIDTH 292 0
DWIDTH 5 0
BBX 5 14 0 -1
BITMAP
000020
000150
000510
000500
000500
004100
005000
005000
042000
050000
050000
320000
500000
500000
ENDCHAR
STARTCHAR zero
ENCODING 48
SWIDTH 378 0
DWIDTH 6 0
BBX 6 12 0 0
BITMAP
026620
060060
050050
330023
410005
500005
500005
410015
330023
050040
060050
025620
ENDCHAR
STARTCHAR one
ENCODING 49
SWIDTH 303 0
DWIDTH 5 0
BBX 5 12 0 0
BITMAP
167000
105000
005000
005000
005000
005000
005000
005000
005000
005000
005000
359530
ENDCHAR
STARTCHAR two
ENCODING 50
SWIDTH 343 0
DWIDTH 5 0
BBX 5 12 0 0
BITMAP
056620
230050
000050
000050
000060
000330
000600
006000
043000
060000
510000
755550
ENDCHAR
STARTCHAR three
ENCODING 51
SWIDTH 377 0
DWIDTH 6 0
BBX 6 12 0 0
BITMAP
036620
060050
000050
000050
000060
025740
045360
000024
000005
000014
200050
165530
ENDCHAR
STARTCHAR four
ENCODING 52
SWIDTH 389 0
DWIDTH 6 0
BBX 6 12 0 0
BITMAP
000320
000500
001400
005000
005050
041050
050050
230050
455593
000050
000050
000050
ENDCHAR
STARTCHAR five
ENCODING 53
SWIDTH 372 0
DWIDTH 6 0
BBX 6 13 0 0
BITMAP
000031
045530
040000
040000
040000
040000
065510
380060
250024
000005
000014
200051
165530
ENDCHAR
STARTCHAR six
ENCODING 54
SWIDTH 360 0
DWIDTH 6 0
BBX 6 12 0 0
BITMAP
000700
006100
024000
060000
060000
245520
441050
500032
500024
320042
050060
045530
ENDCHAR
STARTCHAR seven
ENCODING 55
SWIDTH 321 0
DWIDTH 5 0
BBX 5 12 0 0
BITMAP
355560
000230
000500
000500
001400
005000
005000
005000
041000
050000
050000
220000
ENDCHAR
STARTCHAR eight
ENCODING 56
SWIDTH 377 0
DWIDTH 6 0
BBX 6 12 0 0
BITMAP
046640
050051
230032
150041
061060
007700
045440
160051
410015
510005
140042
045540
ENDCHAR
STARTCHAR nine
ENCODING 57
SWIDTH 360 0
DWIDTH 6 0
BBX 6 12 0 -1
BITMAP
045620
240050
500050
500041
500041
240261
035450
000060
000140
000600
003400
016000
ENDCHAR
STARTCHAR colon
ENCODING 58
SWIDTH 181 0
DWIDTH 3 0
BBX 1 8 1 0
BITMAP
30
40
00
00
00
00
30
40
ENDCHAR
STARTCHAR semicolon
ENCODING 59
SWIDTH 165 0
DWIDTH 3 0
BBX 2 10 0 -2
BITMAP
03
04
00
00
00
00
00
05
05
42
ENDCHAR
STARTCHAR less
ENCODING 60
SWIDTH 482 0
DWIDTH 8 0
BBX 7 7 0 0
BITMAP
00000450
00046200
04620000
17300000
00263000
00003630
00000020
ENDCHAR
STARTCHAR equal
ENCODING 61
SWIDTH 577 0
DWIDTH 9 0
BBX 9 4 0 2
BITMAP
1555555520
0000000000
0000000000
1555555520
ENDCHAR
STARTCHAR greater
ENCODING 62
SWIDTH 482 0
DWIDTH 8 0
BBX 7 7 0 1
BITMAP
11000000
05610000
00056100
00000560
00003620
00362000
15200000
ENDCHAR
STARTCHAR question
ENCODING 63
SWIDTH 300 0
DWIDTH 5 0
BBX 4 12 0 0
BITMAP
1764
3006
0005
0006
0033
0060
0420
0500
0130
0000
0120
0130
ENDCHAR
STARTCHAR at
ENCODING 64
SWIDTH 748 0
DWIDTH 12 0
BBX 12 12 0 0
BITMAP
000465565000
006200001710
052000540060
060006150041
320032020014
510050520014
510243520032
320505600060
060506400520
052163555110
006200000620
000465566100
ENDCHAR
STARTCHAR A
ENCODING 65
SWIDTH 414 0
DWIDTH 7 0
BBX 7 12 0 0
BITMAP
00070000
00380000
00651000
00615000
00606000
03306000
06005100
08557500
06000600
33000600
50000510
50000140
ENDCHAR
STARTCHAR B
ENCODING 66
SWIDTH 375 0
DWIDTH 6 0
BBX 6 12 0 0
BITMAP
185610
140060
140050
140050
140050
156560
155670
140050
140032
140041
140060
185620
ENDCHAR
STARTCHAR C
ENCODING 67
SWIDTH 366 0
DWIDTH 6 0
BBX 6 12 0 0
BITMAP
017661
060000
050000
230000
410000
500000
500000
410000
230000
050000
050000
016551
ENDCHAR
STARTCHAR D
ENCODING 68
SWIDTH 396 0
DWIDTH 6 0
BBX 6 12 0 0
BITMAP
185640
140051
140015
140005
140005
140005
140005
140005
140005
140015
140051
185640
ENDCHAR
STARTCHAR E
ENCODING 69
SWIDTH 309 0
DWIDTH 5 0
BBX 5 12 0 0
BITMAP
185510
140000
140000
140000
140000
185500
140000
140000
140000
140000
140000
185510
ENDCHAR
STARTCHAR F
ENCODING 70
SWIDTH 299 0
DWIDTH 5 0
BBX 5 12 0 0
BITMAP
185510
140000
140000
140000
140000
185500
140000
140000
140000
140000
140000
140000
ENDCHAR
STARTCHAR G
ENCODING 71
SWIDTH 382 0
DWIDTH 6 0
BBX 6 12 0 0
BITMAP
017661
060000
050000
230000
410000
500000
500000
410354
230005
050005
060005
016552
ENDCHAR
STARTCHAR H
ENCODING 72
SWIDTH 425 0
DWIDTH 7 0
BBX 6 12 0 0
BITMAP
140005
140005
140005
140005
140005
185558
140005
140005
140005
140005
140005
140005
ENDCHAR
STARTCHAR I
ENCODING 73
SWIDTH 141 0
DWIDTH 2 0
BBX 2 12 0 0
BITMAP
14
14
14
14
14
14
14
14
14
14
14
14
ENDCHAR
STARTCHAR J
ENCODING 74
SWIDTH 142 0
DWIDTH 2 0
BBX 4 15 -2 -3
BITMAP
0004
0005
0005
0005
0005
0005
0005
0005
0005
0005
0005
0005
0014
0041
1540
ENDCHAR
STARTCHAR K
ENCODING 75
SWIDTH 401 0
DWIDTH 6 0
BBX 6 12 0 0
BITMAP
050015
050060
050050
050230
050500
487600
694340
050060
050042
050015
050005
050005
ENDCHAR
STARTCHAR L
ENCODING 76
SWIDTH 347 0
DWIDTH 6 0
BBX 5 12 0 0
BITMAP
140000
140000
140000
140000
140000
140000
140000
140000
140000
140000
140000
185550
ENDCHAR
STARTCHAR M
ENCODING 77
SWIDTH 534 0
DWIDTH 9 0
BBX 8 12 0 0
BITMAP
07300082
05430643
05048124
05047015
05055105
05048005
05018005
05046005
14046005
23003005
32000005
41000005
ENDCHAR
STARTCHAR N
ENCODING 78
SWIDTH 422 0
DWIDTH 7 0
BBX 6 12 0 0
BITMAP
160005
1A0005
173005
146005
145005
141505
140505
140325
140055
140055
140019
140007
ENDCHAR
STARTCHAR O
ENCODING 79
SWIDTH 446 0
DWIDTH 7 0
BBX 7 12 0 0
BITMAP
01767100
06000600
06000410
23000140
41000050
50000050
50000050
41000050
23000140
05000410
06000600
01656100
ENDCHAR
STARTCHAR P
ENCODING 80
SWIDTH 341 0
DWIDTH 5 0
BBX 5 12 0 0
BITMAP
185620
140060
140050
140050
140050
140240
196400
140000
140000
140000
140000
140000
ENDCHAR
STARTCHAR Q
ENCODING 81
SWIDTH 446 0
DWIDTH 7 0
BBX 7 17 0 -5
BITMAP
01767100
06000600
06000410
23000140
41000050
50000050
50000050
44000250
27402740
05365410
06092600
0177A200
00164000
00090000
00082000
00073000
00040000
ENDCHAR
STARTCHAR R
ENCODING 82
SWIDTH 380 0
DWIDTH 6 0
BBX 6 12 0 0
BITMAP
185630
140060
140050
140041
140050
685240
585710
140050
140050
140032
140005
140005
ENDCHAR
STARTCHAR S
ENCODING 83
SWIDTH 356 0
DWIDTH 6 0
BBX 6 12 0 0
BITMAP
056630
240040
410000
330000
060000
017000
001710
000060
000052
300033
410051
056630
ENDCHAR
STARTCHAR T
ENCODING 84
SWIDTH 377 0
DWIDTH 6 0
BBX 6 12 0 0
BITMAP
457754
002300
002300
002300
002300
002300
002300
002300
002300
002300
002300
002300
ENDCHAR
STARTCHAR U
ENCODING 85
SWIDTH 412 0
DWIDTH 7 0
BBX 6 12 0 0
BITMAP
320005
320005
320005
320005
320005
320005
320005
320005
320005
230005
050005
045561
ENDCHAR
STARTCHAR V
ENCODING 86
SWIDTH 384 0
DWIDTH 6 0
BBX 6 12 0 0
BITMAP
500005
500005
320005
050032
050050
050050
051050
024130
005400
005500
005500
003400
ENDCHAR
STARTCHAR W
ENCODING 87
SWIDTH 534 0
DWIDTH 9 0
BBX 8 12 0 0
BITMAP
41000005
32000005
23000005
14000005
05037005
05055005
05046005
05018005
05038015
05051424
05610443
06200072
ENDCHAR
STARTCHAR X
ENCODING 88
SWIDTH 318 0
DWIDTH 5 0
BBX 5 12 0 0
BITMAP
400050
140320
050500
051500
018200
008000
009100
041500
050500
140420
500050
500050
ENDCHAR
STARTCHAR Y
ENCODING 89
SWIDTH 370 0
DWIDTH 6 0
BBX 6 12 0 0
BITMAP
500005
410023
050060
050150
014510
005600
004300
003200
003200
003200
003200
003200
ENDCHAR
STARTCHAR Z
ENCODING 90
SWIDTH 309 0
DWIDTH 5 0
BBX 5 12 0 0
BITMAP
355660
000420
000500
000500
004100
005000
005000
041000
050000
150000
410000
755530
ENDCHAR
STARTCHAR bracketleft
ENCODING 91
SWIDTH 193 0
DWIDTH 3 0
BBX 3 14 0 -1
BITMAP
0750
1400
1400
1400
1400
1400
1400
1400
1400
1400
1400
1400
1400
0750
ENDCHAR
STARTCHAR backslash
ENCODING 92
SWIDTH 292 0
DWIDTH 5 0
BBX 5 14 0 -1
BITMAP
200000
500000
510000
150000
050000
050000
014000
005000
005000
002300
000500
000500
000330
000050
ENDCHAR
STARTCHAR bracketright
ENCODING 93
SWIDTH 193 0
DWIDTH 3 0
BBX 3 14 0 -1
BITMAP
5610
0320
0320
0320
0320
0320
0320
0320
0320
0320
0320
0320
0320
5610
ENDCHAR
STARTCHAR asciicircum
ENCODING 94
SWIDTH 416 0
DWIDTH 7 0
BBX 7 7 0 5
BITMAP
00030000
00380000
00615000
02306000
06002400
24000600
50000330
ENDCHAR
STARTCHAR underscore
ENCODING 95
SWIDTH 556 0
DWIDTH 9 0
BBX 9 1 0 -1
BITMAP
1555555510
ENDCHAR
STARTCHAR grave
ENCODING 96
SWIDTH 201 0
DWIDTH 3 0
BBX 2 2 1 9
BITMAP
50
41
ENDCHAR
STARTCHAR a
ENCODING 97
SWIDTH 315 0
DWIDTH 5 0
BBX 5 8 0 0
BITMAP
066500
120500
000500
002800
064500
410500
500600
366730
ENDCHAR
STARTCHAR b
ENCODING 98
SWIDTH 298 0
DWIDTH 5 0
BBX 5 12 0 0
BITMAP
140000
140000
140000
140000
195400
150500
140500
140420
140410
140500
150500
185400
ENDCHAR
STARTCHAR c
ENCODING 99
SWIDTH 275 0
DWIDTH 4 0
BBX 4 8 0 0
BITMAP
0454
0504
3200
5000
5000
3200
0504
0454
ENDCHAR
STARTCHAR d
ENCODING 100
SWIDTH 298 0
DWIDTH 5 0
BBX 4 12 0 0
BITMAP
0005
0005
0005
0005
0558
1406
4105
5005
5005
4105
1406
0558
ENDCHAR
STARTCHAR e
ENCODING 101
SWIDTH 285 0
DWIDTH 5 0
BBX 4 8 0 0
BITMAP
0554
0605
3204
5556
5000
3200
0404
0455
ENDCHAR
STARTCHAR f
ENCODING 102
SWIDTH 178 0
DWIDTH 3 0
BBX 4 12 0 0
BITMAP
0263
0500
0500
0500
5840
0500
0500
0500
0500
0500
0500
0400
ENDCHAR
STARTCHAR g
ENCODING 103
SWIDTH 302 0
DWIDTH 5 0
BBX 5 12 0 -3
BITMAP
000500
056700
150600
320410
330410
060600
076200
330000
145610
600060
500050
455530
ENDCHAR
STARTCHAR h
ENCODING 104
SWIDTH 307 0
DWIDTH 5 0
BBX 5 12 0 0
BITMAP
140000
140000
140000
140000
185600
160410
140320
140320
140320
140320
140320
140310
ENDCHAR
STARTCHAR i
ENCODING 105
SWIDTH 141 0
DWIDTH 2 0
BBX 2 11 0 0
BITMAP
14
14
00
14
14
14
14
14
14
14
14
ENDCHAR
STARTCHAR j
ENCODING 106
SWIDTH 141 0
DWIDTH 2 0
BBX 4 14 -2 -3
BITMAP
0014
0014
0000
0014
0014
0014
0014
0014
0014
0014
0014
0014
0032
1550
ENDCHAR
STARTCHAR k
ENCODING 107
SWIDTH 287 0
DWIDTH 5 0
BBX 5 12 0 0
BITMAP
140000
140000
140000
140000
140500
143300
157000
1A6000
153300
140500
140500
140320
ENDCHAR
STARTCHAR l
ENCODING 108
SWIDTH 141 0
DWIDTH 2 0
BBX 2 12 0 0
BITMAP
14
14
14
14
14
14
14
14
14
14
14
14
ENDCHAR
STARTCHAR m
ENCODING 109
SWIDTH 407 0
DWIDTH 7 0
BBX 6 8 0 0
BITMAP
191037
156445
140905
143805
143705
141605
140005
140005
ENDCHAR
STARTCHAR n
ENCODING 110
SWIDTH 307 0
DWIDTH 5 0
BBX 5 8 0 0
BITMAP
185600
160410
140320
140320
140320
140320
140320
140310
ENDCHAR
STARTCHAR o
ENCODING 111
SWIDTH 309 0
DWIDTH 5 0
BBX 5 8 0 0
BITMAP
045400
050500
320320
500140
500240
320320
050500
045400
ENDCHAR
STARTCHAR p
ENCODING 112
SWIDTH 299 0
DWIDTH 5 0
BBX 5 12 0 -3
BITMAP
040000
485400
150500
050410
050320
050420
050510
050500
095400
050000
050000
040000
ENDCHAR
STARTCHAR q
ENCODING 113
SWIDTH 286 0
DWIDTH 5 0
BBX 5 11 0 -3
BITMAP
055800
140600
310500
500500
500500
310500
140600
056800
000500
000500
000430
ENDCHAR
STARTCHAR r
ENCODING 114
SWIDTH 277 0
DWIDTH 4 0
BBX 5 8 0 0
BITMAP
185600
160410
140000
140000
140000
140000
140000
140000
ENDCHAR
STARTCHAR s
ENCODING 115
SWIDTH 257 0
DWIDTH 4 0
BBX 4 8 0 0
BITMAP
1662
5001
3300
0610
0061
0006
4006
2663
ENDCHAR
STARTCHAR t
ENCODING 116
SWIDTH 207 0
DWIDTH 3 0
BBX 3 10 0 0
BITMAP
0500
0500
5940
0500
0500
0500
0500
0500
0500
0440
ENDCHAR
STARTCHAR u
ENCODING 117
SWIDTH 307 0
DWIDTH 5 0
BBX 4 8 0 0
BITMAP
3205
3205
3205
3205
3205
3205
2306
0658
ENDCHAR
STARTCHAR v
ENCODING 118
SWIDTH 285 0
DWIDTH 5 0
BBX 5 8 0 0
BITMAP
500220
500500
230500
050500
051300
055000
037000
007000
ENDCHAR
STARTCHAR w
ENCODING 119
SWIDTH 396 0
DWIDTH 6 0
BBX 6 8 0 0
BITMAP
400005
500005
502505
415505
234605
143705
056435
090064
ENDCHAR
STARTCHAR x
ENCODING 120
SWIDTH 244 0
DWIDTH 4 0
BBX 4 8 0 0
BITMAP
4014
1450
0550
0530
0550
0550
3242
5005
ENDCHAR
STARTCHAR y
ENCODING 121
SWIDTH 285 0
DWIDTH 5 0
BBX 5 11 0 -3
BITMAP
500220
500500
230500
050500
052300
055000
037000
007000
014000
041000
550000
ENDCHAR
STARTCHAR z
ENCODING 122
SWIDTH 233 0
DWIDTH 4 0
BBX 4 8 0 0
BITMAP
2574
0050
0050
0230
0500
0500
3200
7552
ENDCHAR
STARTCHAR braceleft
ENCODING 123
SWIDTH 306 0
DWIDTH 5 0
BBX 5 14 0 -1
BITMAP
000640
003200
004200
004200
004200
004100
457000
457000
004100
004200
004200
004200
003200
000640
ENDCHAR
STARTCHAR bar
ENCODING 124
SWIDTH 141 0
DWIDTH 2 0
BBX 2 14 0 -1
BITMAP
02
14
14
14
14
14
14
14
14
14
14
14
14
14
ENDCHAR
STARTCHAR braceright
ENCODING 125
SWIDTH 306 0
DWIDTH 5 0
BBX 5 14 0 -1
BITMAP
560000
042000
032000
032000
032000
032000
017530
017530
032000
032000
032000
032000
042000
560000
ENDCHAR
STARTCHAR asciitilde
ENCODING 126
SWIDTH 433 0
DWIDTH 7 0
BBX 7 2 0 4
BITMAP
06520220
21035500
ENDCHAR
STARTCHAR uni00A0
ENCODING 160
SWIDTH 240 0
DWIDTH 4 0
BBX 1 1 0 0
BITMAP
00
ENDCHAR
STARTCHAR exclamdown
ENCODING 161
SWIDTH 141 0
DWIDTH 2 0
BBX 2 12 0 -3
BITMAP
14
03
00
04
14
14
14
14
14
14
14
14
ENDCHAR
STARTCHAR cent
ENCODING 162
SWIDTH 275 0
DWIDTH 4 0
BBX 4 11 0 -1
BITMAP
0050
0070
0676
1452
4150
5050
4150
2452
0666
0180
0050
ENDCHAR
STARTCHAR sterling
ENCODING 163
SWIDTH 331 0
DWIDTH 5 0
BBX 5 12 0 0
BITMAP
065610
510040
500000
500000
240000
060000
277500
005000
005000
042000
060000
765550
ENDCHAR
STARTCHAR currency
ENCODING 164
SWIDTH 506 0
DWIDTH 8 0
BBX 8 8 0 1
BITMAP
12000011
05666660
04200140
05000050
06000050
03600440
06366361
00000001
ENDCHAR
STARTCHAR yen
ENCODING 165
SWIDTH 370 0
DWIDTH 6 0
BBX 6 12 0 0
BITMAP
500005
410023
050060
050150
014500
006600
004300
057750
003200
057750
003200
003200
ENDCHAR
STARTCHAR brokenbar
ENCODING 166
SWIDTH 141 0
DWIDTH 2 0
BBX 2 14 0 -1
BITMAP
02
14
14
14
14
14
00
00
02
14
14
14
14
14
ENDCHAR
STARTCHAR section
ENCODING 167
SWIDTH 303 0
DWIDTH 5 0
BBX 5 14 0 -1
BITMAP
055400
420330
600000
330000
044000
0AF800
471A10
400320
021200
011200
000520
000150
510330
055400
ENDCHAR
STARTCHAR dieresis
ENCODING 168
SWIDTH 241 0
DWIDTH 4 0
BBX 3 2 0 9
BITMAP
1450
1450
ENDCHAR
STARTCHAR copyright
ENCODING 169
SWIDTH 772 0
DWIDTH 12 0
BBX 12 12 0 0
BITMAP
000155563000
004500003600
034005620160
060033000032
230050000006
500050000005
500050000005
230050000006
060033000032
034004620160
004500004600
000155562000
ENDCHAR
STARTCHAR ordfeminine
ENCODING 170
SWIDTH 231 0
DWIDTH 4 0
BBX 4 5 0 6
BITMAP
2650
0050
0570
5150
4681
ENDCHAR
STARTCHAR guillemotleft
ENCODING 171
SWIDTH 403 0
DWIDTH 6 0
BBX 6 7 0 2
BITMAP
000303
006143
052340
341600
060610
016060
002415
ENDCHAR
STARTCHAR logicalnot
ENCODING 172
SWIDTH 557 0
DWIDTH 9 0
BBX 9 3 0 3
BITMAP
1555555630
0000000140
0000000140
ENDCHAR
STARTCHAR uni00AD
ENCODING 173
SWIDTH 286 0
DWIDTH 5 0
BBX 4 1 0 4
BITMAP
1554
ENDCHAR
STARTCHAR registered
ENCODING 174
SWIDTH 772 0
DWIDTH 12 0
BBX 12 12 0 0
BITMAP
000155563000
004500003600
034017610160
060014050032
230014150006
500018810005
500014140005
230014050006
060014050032
034001020160
004500004600
000155562000
ENDCHAR
STARTCHAR macron
ENCODING 175
SWIDTH 266 0
DWIDTH 4 0
BBX 3 1 1 9
BITMAP
5510
ENDCHAR
STARTCHAR degree
ENCODING 176
SWIDTH 350 0
DWIDTH 6 0
BBX 5 5 0 7
BITMAP
025500
160050
330050
060050
025500
ENDCHAR
STARTCHAR plusminus
ENCODING 177
SWIDTH 577 0
DWIDTH 9 0
BBX 9 8 0 0
BITMAP
0000400000
0000500000
0000500000
1555955520
0000500000
0000500000
0000300000
1555555520
ENDCHAR
STARTCHAR uni00B2
ENCODING 178
SWIDTH 207 0
DWIDTH 3 0
BBX 3 5 0 6
BITMAP
2650
0050
0230
0500
5640
ENDCHAR
STARTCHAR uni00B3
ENCODING 179
SWIDTH 214 0
DWIDTH 3 0
BBX 3 5 0 6
BITMAP
2640
0050
0440
0050
3550
ENDCHAR
STARTCHAR acute
ENCODING 180
SWIDTH 201 0
DWIDTH 3 0
BBX 2 2 1 9
BITMAP
31
50
ENDCHAR
STARTCHAR uni00B5
ENCODING 181
SWIDTH 335 0
DWIDTH 5 0
BBX 5 11 0 -3
BITMAP
140310
140320
140320
140320
140320
140320
140420
185750
140000
140000
140000
ENDCHAR
STARTCHAR paragraph
ENCODING 182
SWIDTH 471 0
DWIDTH 8 0
BBX 6 12 1 0
BITMAP
2BFE05
BFFF05
FFFF05
FFFF05
BFFF05
2DFF05
001605
000505
000505
000505
000505
000405
ENDCHAR
STARTCHAR periodcentered
ENCODING 183
SWIDTH 181 0
DWIDTH 3 0
BBX 1 2 1 4
BITMAP
30
40
ENDCHAR
STARTCHAR cedilla
ENCODING 184
SWIDTH 232 0
DWIDTH 4 0
BBX 2 4 1 -3
BITMAP
20
74
05
63
ENDCHAR
STARTCHAR uni00B9
ENCODING 185
SWIDTH 176 0
DWIDTH 3 0
BBX 3 5 0 6
BITMAP
3700
0500
0500
0500
3830
ENDCHAR
STARTCHAR ordmasculine
ENCODING 186
SWIDTH 201 0
DWIDTH 3 0
BBX 3 5 0 6
BITMAP
2640
5050
5050
5050
2640
ENDCHAR
STARTCHAR guillemotright
ENCODING 187
SWIDTH 403 0
DWIDTH 6 0
BBX 6 7 0 0
BITMAP
240600
043250
005234
002506
016061
060520
210300
ENDCHAR
STARTCHAR onequarter
ENCODING 188
SWIDTH 527 0
DWIDTH 8 0
BBX 8 12 0 0
BITMAP
00000032
18100050
04100230
04100500
04101400
18505000
00015000
00050050
00050430
00410550
00501793
03200050
ENDCHAR
STARTCHAR onehalf
ENCODING 189
SWIDTH 540 0
DWIDTH 9 0
BBX 8 12 0 0
BITMAP
00000032
18100050
04100230
04100500
04101400
18505000
00015000
00050265
00050005
00410023
00500050
03200564
ENDCHAR
STARTCHAR threequarters
ENCODING 190
SWIDTH 517 0
DWIDTH 8 0
BBX 8 12 0 0
BITMAP
00000032
26400050
00500230
04400500
00501400
35505000
00015000
00050050
00050250
00410550
00500794
03200050
ENDCHAR
STARTCHAR questiondown
ENCODING 191
SWIDTH 300 0
DWIDTH 5 0
BBX 5 12 0 -3
BITMAP
004000
003000
000000
004000
002300
004100
006000
051000
060000
150000
150120
066700
ENDCHAR
STARTCHAR Agrave
ENCODING 192
SWIDTH 414 0
DWIDTH 7 0
BBX 7 14 0 0
BITMAP
00500000
00020000
00070000
00380000
00651000
00615000
00606000
03306000
06005100
08557500
06000600
33000600
50000510
50000140
ENDCHAR
STARTCHAR Aacute
ENCODING 193
SWIDTH 414 0
DWIDTH 7 0
BBX 7 14 0 0
BITMAP
00033000
00030000
00070000
00380000
00651000
00615000
00606000
03306000
06005100
08557500
06000600
33000600
50000510
50000140
ENDCHAR
STARTCHAR Acircumflex
ENCODING 194
SWIDTH 414 0
DWIDTH 7 0
BBX 7 14 0 0
BITMAP
00010000
00471000
00271000
00380000
00651000
00615000
00606000
03306000
06005100
08557500
06000600
33000600
50000510
50000140
ENDCHAR
STARTCHAR Atilde
ENCODING 195
SWIDTH 414 0
DWIDTH 7 0
BBX 7 14 0 0
BITMAP
00623000
00343000
00070000
00380000
00651000
00615000
00606000
03306000
06005100
08557500
06000600
33000600
50000510
50000140
ENDCHAR
STARTCHAR Adieresis
ENCODING 196
SWIDTH 414 0
DWIDTH 7 0
BBX 7 14 0 0
BITMAP
00312000
00523000
00070000
00380000
00651000
00615000
00606000
03306000
06005100
08557500
06000600
33000600
50000510
50000140
ENDCHAR
STARTCHAR Aring
ENCODING 197
SWIDTH 414 0
DWIDTH 7 0
BBX 7 15 0 0
BITMAP
00260000
00532000
00260000
00070000
00380000
00651000
00615000
00606000
03306000
06005100
08557500
06000600
33000600
50000510
50000140
ENDCHAR
STARTCHAR AE
ENCODING 198
SWIDTH 545 0
DWIDTH 9 0
BBX 8 12 0 0
BITMAP
00006655
00009100
00037100
00064100
00064100
00524655
00704100
02958100
06104100
06004100
42004100
50004655
ENDCHAR
STARTCHAR Ccedilla
ENCODING 199
SWIDTH 366 0
DWIDTH 6 0
BBX 6 15 0 -3
BITMAP
017661
060000
050000
230000
410000
500000
500000
410000
230000
050000
050000
016651
000820
000050
001620
ENDCHAR
STARTCHAR Egrave
ENCODING 200
SWIDTH 309 0
DWIDTH 5 0
BBX 5 14 0 0
BITMAP
023000
003000
185510
140000
140000
140000
140000
185500
140000
140000
140000
140000
140000
185510
ENDCHAR
STARTCHAR Eacute
ENCODING 201
SWIDTH 309 0
DWIDTH 5 0
BBX 5 14 0 0
BITMAP
000500
002100
185510
140000
140000
140000
140000
185500
140000
140000
140000
140000
140000
185510
ENDCHAR
STARTCHAR Ecircumflex
ENCODING 202
SWIDTH 309 0
DWIDTH 5 0
BBX 5 14 0 0
BITMAP
001000
027400
1A5710
140000
140000
140000
140000
185500
140000
140000
140000
140000
140000
185510
ENDCHAR
STARTCHAR Edieresis
ENCODING 203
SWIDTH 309 0
DWIDTH 5 0
BBX 5 14 0 0
BITMAP
021300
041500
185510
140000
140000
140000
140000
185500
140000
140000
140000
140000
140000
185510
ENDCHAR
STARTCHAR Igrave
ENCODING 204
SWIDTH 141 0
DWIDTH 2 0
BBX 2 14 0 0
BITMAP
60
21
14
14
14
14
14
14
14
14
14
14
14
14
ENDCHAR
STARTCHAR Iacute
ENCODING 205
SWIDTH 141 0
DWIDTH 2 0
BBX 3 14 0 0
BITMAP
0410
0300
1400
1400
1400
1400
1400
1400
1400
1400
1400
1400
1400
1400
ENDCHAR
STARTCHAR Icircumflex
ENCODING 206
SWIDTH 141 0
DWIDTH 2 0
BBX 3 14 0 0
BITMAP
0100
6600
2510
1400
1400
1400
1400
1400
1400
1400
1400
1400
1400
1400
ENDCHAR
STARTCHAR Idieresis
ENCODING 207
SWIDTH 141 0
DWIDTH 2 0
BBX 2 14 0 0
BITMAP
33
55
14
14
14
14
14
14
14
14
14
14
14
14
ENDCHAR
STARTCHAR Eth
ENCODING 208
SWIDTH 396 0
DWIDTH 6 0
BBX 6 12 0 0
BITMAP
185640
140051
140015
140005
140005
140005
585005
140005
140005
140015
140051
185640
ENDCHAR
STARTCHAR Ntilde
ENCODING 209
SWIDTH 422 0
DWIDTH 7 0
BBX 6 14 0 0
BITMAP
005330
003440
160005
1A0005
173005
146005
145005
141505
140505
140325
140055
140055
140019
140007
ENDCHAR
STARTCHAR Ograve
ENCODING 210
SWIDTH 446 0
DWIDTH 7 0
BBX 7 14 0 0
BITMAP
00320000
00030000
01767100
06000600
06000410
23000140
41000050
50000050
50000050
41000050
23000140
05000410
06000600
01656100
ENDCHAR
STARTCHAR Oacute
ENCODING 211
SWIDTH 446 0
DWIDTH 7 0
BBX 7 14 0 0
BITMAP
00015000
00030000
01767100
06000600
06000410
23000140
41000050
50000050
50000050
41000050
23000140
05000410
06000600
01656100
ENDCHAR
STARTCHAR Ocircumflex
ENCODING 212
SWIDTH 446 0
DWIDTH 7 0
BBX 7 14 0 0
BITMAP
00010000
00273000
01868100
06000600
06000410
23000140
41000050
50000050
50000050
41000050
23000140
05000410
06000600
01656100
ENDCHAR
STARTCHAR Otilde
ENCODING 213
SWIDTH 446 0
DWIDTH 7 0
BBX 7 14 0 0
BITMAP
00443000
00335000
01767100
06000600
06000410
23000140
41000050
50000050
50000050
41000050
23000140
05000410
06000600
01656100
ENDCHAR
STARTCHAR Odieresis
ENCODING 214
SWIDTH 446 0
DWIDTH 7 0
BBX 7 14 0 0
BITMAP
00303000
00505000
01767100
06000600
06000410
23000140
41000050
50000050
50000050
41000050
23000140
05000410
06000600
01656100
ENDCHAR
STARTCHAR multiply
ENCODING 215
SWIDTH 445 0
DWIDTH 7 0
BBX 7 7 0 0
BITMAP
00000020
24000610
03406100
00381000
00644000
06103400
11000300
ENDCHAR
STARTCHAR Oslash
ENCODING 216
SWIDTH 446 0
DWIDTH 7 0
BBX 7 12 0 0
BITMAP
01656510
06000900
05002810
23005140
41015050
50051050
50050050
41320050
33500150
07400410
09000600
06656100
ENDCHAR
STARTCHAR Ugrave
ENCODING 217
SWIDTH 412 0
DWIDTH 7 0
BBX 6 14 0 0
BITMAP
005000
001200
320005
320005
320005
320005
320005
320005
320005
320005
320005
230005
050005
045561
ENDCHAR
STARTCHAR Uacute
ENCODING 218
SWIDTH 412 0
DWIDTH 7 0
BBX 6 14 0 0
BITMAP
000330
000300
320005
320005
320005
320005
320005
320005
320005
320005
320005
230005
050005
045561
ENDCHAR
STARTCHAR Ucircumflex
ENCODING 219
SWIDTH 412 0
DWIDTH 7 0
BBX 6 14 0 0
BITMAP
000100
005710
321015
320005
320005
320005
320005
320005
320005
320005
320005
230005
050005
045561
ENDCHAR
STARTCHAR Udieresis
ENCODING 220
SWIDTH 412 0
DWIDTH 7 0
BBX 6 14 0 0
BITMAP
003110
005220
320005
320005
320005
320005
320005
320005
320005
320005
320005
230005
050005
045561
ENDCHAR
STARTCHAR Yacute
ENCODING 221
SWIDTH 370 0
DWIDTH 6 0
BBX 6 14 0 0
BITMAP
000500
000300
500005
410023
050060
050150
014510
005600
004300
003200
003200
003200
003200
003200
ENDCHAR
STARTCHAR Thorn
ENCODING 222
SWIDTH 341 0
DWIDTH 5 0
BBX 5 12 0 0
BITMAP
140000
140000
185500
140050
140050
140050
140050
140250
185400
140000
140000
140000
ENDCHAR
STARTCHAR germandbls
ENCODING 223
SWIDTH 327 0
DWIDTH 5 0
BBX 5 12 0 0
BITMAP
056500
050500
050410
140510
156900
172B00
157630
140050
140050
140050
140310
165500
ENDCHAR
STARTCHAR agrave
ENCODING 224
SWIDTH 315 0
DWIDTH 5 0
BBX 5 11 0 0
BITMAP
041000
005000
000000
066500
120500
000500
002800
064500
410500
500600
366730
ENDCHAR
STARTCHAR aacute
ENCODING 225
SWIDTH 315 0
DWIDTH 5 0
BBX 5 11 0 0
BITMAP
001400
005000
000000
066500
120500
000500
002800
064500
410500
500600
366730
ENDCHAR
STARTCHAR acircumflex
ENCODING 226
SWIDTH 315 0
DWIDTH 5 0
BBX 5 11 0 0
BITMAP
018100
050500
000000
066500
120500
000500
002800
064500
410500
500600
366730
ENDCHAR
STARTCHAR atilde
ENCODING 227
SWIDTH 315 0
DWIDTH 5 0
BBX 5 11 0 0
BITMAP
053300
033500
000000
066500
120500
000500
002800
064500
410500
500600
366730
ENDCHAR
STARTCHAR adieresis
ENCODING 228
SWIDTH 315 0
DWIDTH 5 0
BBX 5 11 0 0
BITMAP
050500
050500
000000
066500
120500
000500
002800
064500
410500
500600
366730
ENDCHAR
STARTCHAR aring
ENCODING 229
SWIDTH 315 0
DWIDTH 5 0
BBX 5 12 0 0
BITMAP
026100
050400
026100
000000
066500
120500
000500
002800
064500
410500
500600
366730
ENDCHAR
STARTCHAR ae
ENCODING 230
SWIDTH 450 0
DWIDTH 7 0
BBX 7 8 0 0
BITMAP
06545620
11062050
00070050
01595550
25060000
50060000
50071040
26536620
ENDCHAR
STARTCHAR ccedilla
ENCODING 231
SWIDTH 275 0
DWIDTH 4 0
BBX 4 11 0 -3
BITMAP
0454
0504
3200
5000
5000
3200
0504
0474
0181
0004
0261
ENDCHAR
STARTCHAR egrave
ENCODING 232
SWIDTH 285 0
DWIDTH 5 0
BBX 4 11 0 0
BITMAP
0410
0050
0000
0554
0605
3204
5556
5000
3200
0404
0455
ENDCHAR
STARTCHAR eacute
ENCODING 233
SWIDTH 285 0
DWIDTH 5 0
BBX 4 11 0 0
BITMAP
0013
0050
0000
0554
0605
3204
5556
5000
3200
0404
0455
ENDCHAR
STARTCHAR ecircumflex
ENCODING 234
SWIDTH 285 0
DWIDTH 5 0
BBX 4 11 0 0
BITMAP
0181
0505
0000
0554
0605
3204
5556
5000
3200
0404
0455
ENDCHAR
STARTCHAR edieresis
ENCODING 235
SWIDTH 285 0
DWIDTH 5 0
BBX 4 11 0 0
BITMAP
0505
0505
0000
0554
0605
3204
5556
5000
3200
0404
0455
ENDCHAR
STARTCHAR igrave
ENCODING 236
SWIDTH 141 0
DWIDTH 2 0
BBX 2 11 0 0
BITMAP
50
23
00
14
14
14
14
14
14
14
14
ENDCHAR
STARTCHAR iacute
ENCODING 237
SWIDTH 141 0
DWIDTH 2 0
BBX 3 11 0 0
BITMAP
0410
0500
0000
1400
1400
1400
1400
1400
1400
1400
1400
ENDCHAR
STARTCHAR icircumflex
ENCODING 238
SWIDTH 141 0
DWIDTH 2 0
BBX 4 11 -1 0
BITMAP
0460
1532
0000
0140
0140
0140
0140
0140
0140
0140
0140
ENDCHAR
STARTCHAR idieresis
ENCODING 239
SWIDTH 141 0
DWIDTH 2 0
BBX 3 11 0 0
BITMAP
5310
5310
0000
1400
1400
1400
1400
1400
1400
1400
1400
ENDCHAR
STARTCHAR eth
ENCODING 240
SWIDTH 319 0
DWIDTH 5 0
BBX 5 12 0 0
BITMAP
050000
006410
046500
000600
045910
050240
320060
510050
510050
320140
050510
045400
ENDCHAR
STARTCHAR ntilde
ENCODING 241
SWIDTH 307 0
DWIDTH 5 0
BBX 5 11 0 0
BITMAP
053300
033500
000000
185600
160410
140320
140320
140320
140320
140320
140310
ENDCHAR
STARTCHAR ograve
ENCODING 242
SWIDTH 309 0
DWIDTH 5 0
BBX 5 11 0 0
BITMAP
041000
005000
000000
045400
050500
320320
500140
500240
320320
050500
045400
ENDCHAR
STARTCHAR oacute
ENCODING 243
SWIDTH 309 0
DWIDTH 5 0
BBX 5 11 0 0
BITMAP
001400
005000
000000
045400
050500
320320
500140
500240
320320
050500
045400
ENDCHAR
STARTCHAR ocircumflex
ENCODING 244
SWIDTH 309 0
DWIDTH 5 0
BBX 5 11 0 0
BITMAP
018100
050500
000000
045400
050500
320320
500140
500240
320320
050500
045400
ENDCHAR
STARTCHAR otilde
ENCODING 245
SWIDTH 309 0
DWIDTH 5 0
BBX 5 11 0 0
BITMAP
053300
033500
000000
045400
050500
320320
500140
500240
320320
050500
045400
ENDCHAR
STARTCHAR odieresis
ENCODING 246
SWIDTH 309 0
DWIDTH 5 0
BBX 5 11 0 0
BITMAP
050500
050500
000000
045400
050500
320320
500140
500240
320320
050500
045400
ENDCHAR
STARTCHAR divide
ENCODING 247
SWIDTH 577 0
DWIDTH 9 0
BBX 9 8 0 0
BITMAP
0000400000
0000300000
0000000000
0000000000
1555555520
0000000000
0000300000
0000400000
ENDCHAR
STARTCHAR oslash
ENCODING 248
SWIDTH 309 0
DWIDTH 5 0
BBX 5 8 0 0
BITMAP
045810
050900
322620
505140
505240
361320
080500
285400
ENDCHAR
STARTCHAR ugrave
ENCODING 249
SWIDTH 307 0
DWIDTH 5 0
BBX 4 11 0 0
BITMAP
0410
0050
0000
3205
3205
3205
3205
3205
3205
2306
0658
ENDCHAR
STARTCHAR uacute
ENCODING 250
SWIDTH 307 0
DWIDTH 5 0
BBX 4 11 0 0
BITMAP
0014
0050
0000
3205
3205
3205
3205
3205
3205
2306
0658
ENDCHAR
STARTCHAR ucircumflex
ENCODING 251
SWIDTH 307 0
DWIDTH 5 0
BBX 4 11 0 0
BITMAP
0181
0505
0000
3205
3205
3205
3205
3205
3205
2306
0658
ENDCHAR
STARTCHAR udieresis
ENCODING 252
SWIDTH 307 0
DWIDTH 5 0
BBX 4 11 0 0
BITMAP
0505
0505
0000
3205
3205
3205
3205
3205
3205
2306
0658
ENDCHAR
STARTCHAR yacute
ENCODING 253
SWIDTH 285 0
DWIDTH 5 0
BBX 5 14 0 -3
BITMAP
003200
005000
000000
500220
500500
230500
050500
052300
055000
037000
007000
014000
041000
550000
ENDCHAR
STARTCHAR thorn
ENCODING 254
SWIDTH 299 0
DWIDTH 5 0
BBX 5 15 0 -3
BITMAP
040000
050000
050000
050000
485400
150500
050410
050320
050420
050510
050500
095400
050000
050000
040000
ENDCHAR
STARTCHAR ydieresis
ENCODING 255
SWIDTH 285 0
DWIDTH 5 0
BBX 5 14 0 -3
BITMAP
051300
051300
000000
500220
500500
230500
050500
052300
055000
037000
007000
014000
041000
550000
ENDCHAR
STARTCHAR dotlessi
ENCODING 305
SWIDTH 141 0
DWIDTH 2 0
BBX 2 8 0 0
BITMAP
14
14
14
14
14
14
14
14
ENDCHAR
STARTCHAR OE
ENCODING 338
SWIDTH 505 0
DWIDTH 8 0
BBX 8 12 0 0
BITMAP
01659552
06005000
05005000
33005000
41005000
50008551
50005000
41005000
23005000
06005000
06005000
01659552
ENDCHAR
STARTCHAR oe
ENCODING 339
SWIDTH 492 0
DWIDTH 8 0
BBX 8 8 0 0
BITMAP
04532660
05055032
32036004
50018553
50025000
32036000
05055023
04542560
ENDCHAR
STARTCHAR Wcircumflex
ENCODING 372
SWIDTH 534 0
DWIDTH 9 0
BBX 8 14 0 0
BITMAP
00001000
00056100
41010105
32000005
23000005
14000005
05037005
05055005
05046005
05018005
05038015
05051424
05610443
06200072
ENDCHAR
STARTCHAR wcircumflex
ENCODING 373
SWIDTH 396 0
DWIDTH 6 0
BBX 6 11 0 0
BITMAP
004600
005230
000000
400005
500005
502505
415505
234605
143705
056435
090064
ENDCHAR
STARTCHAR Ycircumflex
ENCODING 374
SWIDTH 370 0
DWIDTH 6 0
BBX 6 14 0 0
BITMAP
001100
006600
511105
410023
050060
050150
014510
005600
004300
003200
003200
003200
003200
003200
ENDCHAR
STARTCHAR ycircumflex
ENCODING 375
SWIDTH 285 0
DWIDTH 5 0
BBX 5 14 0 -3
BITMAP
037000
051400
000000
500220
500500
230500
050500
052300
055000
037000
007000
014000
041000
550000
ENDCHAR
STARTCHAR Ydieresis
ENCODING 376
SWIDTH 370 0
DWIDTH 6 0
BBX 6 14 0 0
BITMAP
003300
005500
500005
410023
050060
050150
014510
005600
004300
003200
003200
003200
003200
003200
ENDCHAR
STARTCHAR uni0237
ENCODING 567
SWIDTH 141 0
DWIDTH 2 0
BBX 4 11 -2 -3
BITMAP
0014
0014
0014
0014
0014
0014
0014
0014
0014
0032
1550
ENDCHAR
STARTCHAR circumflex
ENCODING 710
SWIDTH 280 0
DWIDTH 4 0
BBX 3 2 1 9
BITMAP
3700
5230
ENDCHAR
STARTCHAR ring
ENCODING 730
SWIDTH 238 0
DWIDTH 4 0
BBX 2 3 1 9
BITMAP
54
55
54
ENDCHAR
STARTCHAR tilde
ENCODING 732
SWIDTH 301 0
DWIDTH 5 0
BBX 3 2 1 9
BITMAP
5330
3440
ENDCHAR
STARTCHAR gravecomb
ENCODING 768
SWIDTH 0 0
DWIDTH 0 0
BBX 2 2 1 9
BITMAP
50
41
ENDCHAR
STARTCHAR acutecomb
ENCODING 769
SWIDTH 0 0
DWIDTH 0 0
BBX 2 2 1 9
BITMAP
31
50
ENDCHAR
STARTCHAR uni0302
ENCODING 770
SWIDTH 0 0
DWIDTH 0 0
BBX 3 2 1 9
BITMAP
3700
5230
ENDCHAR
STARTCHAR tildecomb
ENCODING 771
SWIDTH 0 0
DWIDTH 0 0
BBX 3 2 1 9
BITMAP
5330
3440
ENDCHAR
STARTCHAR uni0307
ENCODING 775
SWIDTH 0 0
DWIDTH 0 0
BBX 2 2 0 9
BITMAP
14
14
ENDCHAR
STARTCHAR uni0308
ENCODING 776
SWIDTH 0 0
DWIDTH 0 0
BBX 3 2 0 9
BITMAP
1450
1450
ENDCHAR
STARTCHAR uni030A
ENCODING 778
SWIDTH 0 0
DWIDTH 0 0
BBX 2 3 1 9
BITMAP
54
55
54
ENDCHAR
STARTCHAR uni0327
ENCODING 807
SWIDTH 0 0
DWIDTH 0 0
BBX 2 4 1 -3
BITMAP
20
74
05
63
ENDCHAR
STARTCHAR Wgrave
ENCODING 7808
SWIDTH 534 0
DWIDTH 9 0
BBX 8 14 0 0
BITMAP
00050000
00012000
41000005
32000005
23000005
14000005
05037005
05055005
05046005
05018005
05038015
05051424
05610443
06200072
ENDCHAR
STARTCHAR wgrave
ENCODING 7809
SWIDTH 396 0
DWIDTH 6 0
BBX 6 11 0 0
BITMAP
005000
002300
000000
400005
500005
502505
415505
234605
143705
056435
090064
ENDCHAR
STARTCHAR Wacute
ENCODING 7810
SWIDTH 534 0
DWIDTH 9 0
BBX 8 14 0 0
BITMAP
00003200
00003000
41000005
32000005
23000005
14000005
05037005
05055005
05046005
05018005
05038015
05051424
05610443
06200072
ENDCHAR
STARTCHAR wacute
ENCODING 7811
SWIDTH 396 0
DWIDTH 6 0
BBX 6 11 0 0
BITMAP
000410
000500
000000
400005
500005
502505
415505
234605
143705
056435
090064
ENDCHAR
STARTCHAR Wdieresis
ENCODING 7812
SWIDTH 534 0
DWIDTH 9 0
BBX 8 14 0 0
BITMAP
00032100
00053200
41000005
32000005
23000005
14000005
05037005
05055005
05046005
05018005
05038015
05051424
05610443
06200072
ENDCHAR
STARTCHAR wdieresis
ENCODING 7813
SWIDTH 396 0
DWIDTH 6 0
BBX 6 11 0 0
BITMAP
005320
005320
000000
400005
500005
502505
415505
234605
143705
056435
090064
ENDCHAR
STARTCHAR uni1E9E
ENCODING 7838
SWIDTH 375 0
DWIDTH 6 0
BBX 6 12 0 0
BITMAP
046610
060050
050050
140050
140050
145550
145560
140051
140032
140041
140050
165520
ENDCHAR
STARTCHAR Ygrave
ENCODING 7922
SWIDTH 370 0
DWIDTH 6 0
BBX 6 14 0 0
BITMAP
005000
003000
500005
410023
050060
050150
014510
005600
004300
003200
003200
003200
003200
003200
ENDCHAR
STARTCHAR ygrave
ENCODING 7923
SWIDTH 285 0
DWIDTH 5 0
BBX 5 14 0 -3
BITMAP
050000
014000
000000
500220
500500
230500
050500
052300
055000
037000
007000
014000
041000
550000
ENDCHAR
STARTCHAR endash
ENCODING 8211
SWIDTH 425 0
DWIDTH 7 0
BBX 6 1 0 3
BITMAP
155555
ENDCHAR
STARTCHAR emdash
ENCODING 8212
SWIDTH 770 0
DWIDTH 12 0
BBX 12 1 0 3
BITMAP
155555555553
ENDCHAR
STARTCHAR quoteleft
ENCODING 8216
SWIDTH 145 0
DWIDTH 2 0
BBX 2 3 0 9
BITMAP
16
32
32
ENDCHAR
STARTCHAR quoteright
ENCODING 8217
SWIDTH 145 0
DWIDTH 2 0
BBX 2 3 0 7
BITMAP
05
05
33
ENDCHAR
STARTCHAR quotesinglbase
ENCODING 8218
SWIDTH 145 0
DWIDTH 2 0
BBX 2 3 0 -2
BITMAP
05
05
42
ENDCHAR
STARTCHAR quotedblleft
ENCODING 8220
SWIDTH 219 0
DWIDTH 4 0
BBX 3 3 0 9
BITMAP
1660
3250
3240
ENDCHAR
STARTCHAR quotedblright
ENCODING 8221
SWIDTH 219 0
DWIDTH 4 0
BBX 3 3 0 7
BITMAP
0550
0550
3550
ENDCHAR
STARTCHAR quotedblbase
ENCODING 8222
SWIDTH 219 0
DWIDTH 4 0
BBX 3 3 0 -2
BITMAP
0550
0550
4540
ENDCHAR
STARTCHAR bullet
ENCODING 8226
SWIDTH 355 0
DWIDTH 6 0
BBX 4 4 1 4
BITMAP
5EC2
EFF9
EFF9
5EC2
ENDCHAR
STARTCHAR ellipsis
ENCODING 8230
SWIDTH 651 0
DWIDTH 10 0
BBX 9 2 1 0
BITMAP
3000300210
4000400320
ENDCHAR
STARTCHAR guilsinglleft
ENCODING 8249
SWIDTH 263 0
DWIDTH 4 0
BBX 4 7 0 2
BITMAP
0003
0061
0520
3400
0600
0160
0024
ENDCHAR
STARTCHAR guilsinglright
ENCODING 8250
SWIDTH 263 0
DWIDTH 4 0
BBX 4 7 0 0
BITMAP
2400
0430
0052
0025
0160
0600
2100
ENDCHAR
STARTCHAR fraction
ENCODING 8260
SWIDTH 152 0
DWIDTH 2 0
BBX 6 12 -2 0
BITMAP
000005
000005
000051
000050
000420
000500
003300
005000
024000
050000
140000
500000
ENDCHAR
STARTCHAR uni2074
ENCODING 8308
SWIDTH 247 0
DWIDTH 4 0
BBX 4 5 0 6
BITMAP
0320
0520
1450
4591
0050
ENDCHAR
STARTCHAR Euro
ENCODING 8364
SWIDTH 391 0
DWIDTH 6 0
BBX 6 12 0 0
BITMAP
004664
024000
050000
050000
050000
485300
485300
050000
050000
050000
024000
004554
ENDCHAR
STARTCHAR trademark
ENCODING 8482
SWIDTH 506 0
DWIDTH 8 0
BBX 8 6 0 5
BITMAP
AFF39064
05027964
05023A24
05023814
05023B14
05013014
ENDCHAR
STARTCHAR minus
ENCODING 8722
SWIDTH 557 0
DWIDTH 9 0
BBX 9 1 0 4
BITMAP
4DDDDDDD30
ENDCHAR
STARTCHAR uni2215
ENCODING 8725
SWIDTH 259 0
DWIDTH 4 0
BBX 4 12 0 0
BITMAP
0002
0005
0005
0032
0050
0050
0320
0500
0500
2300
5000
5000
ENDCHAR
STARTCHAR .notdef
ENCODING -1
SWIDTH 500 0
DWIDTH 8 0
BBX 8 15 0 -3
BITMAP
3DCCCCD3
39000093
39000093
39000093
39000093
39000093
39000093
39000093
39000093
39000093
39000093
39000093
39000093
39000093
3DCCCCD3
ENDCHAR
STARTCHAR NULL
ENCODING -1
SWIDTH 600 0
DWIDTH 10 0
BBX 1 1 0 0
BITMAP
00
ENDCHAR
STARTCHAR acutecomb.case
ENCODING -1
SWIDTH 0 0
DWIDTH 0 0
BBX 1 2 1 12
BITMAP
50
30
ENDCHAR
STARTCHAR uni0302.case
ENCODING -1
SWIDTH 0 0
DWIDTH 0 0
BBX 3 3 1 11
BITMAP
0100
6600
1110
ENDCHAR
STARTCHAR uni0308.case
ENCODING -1
SWIDTH 0 0
DWIDTH 0 0
BBX 3 2 0 12
BITMAP
0330
1450
ENDCHAR
STARTCHAR uni0307.case
ENCODING -1
SWIDTH 0 0
DWIDTH 0 0
BBX 2 2 0 12
BITMAP
03
14
ENDCHAR
STARTCHAR gravecomb.case
ENCODING -1
SWIDTH 0 0
DWIDTH 0 0
BBX 1 2 1 12
BITMAP
60
30
ENDCHAR
STARTCHAR uni030A.case
ENCODING -1
SWIDTH 0 0
DWIDTH 0 0
BBX 2 3 1 12
BITMAP
53
45
53
ENDCHAR
STARTCHAR tildecomb.case
ENCODING -1
SWIDTH 0 0
DWIDTH 0 0
BBX 3 2 1 12
BITMAP
5230
3440
ENDCHAR
ENDFONT
